<?xml version="1.0" encoding="UTF-8"?>
<!-- Created with Inkscape (http://www.inkscape.org/) -->
<svg width="133.33" height="133.33" version="1.1" viewBox="0 0 133.33 133.33" xmlns="http://www.w3.org/2000/svg" xmlns:cc="http://creativecommons.org/ns#" xmlns:dc="http://purl.org/dc/elements/1.1/" xmlns:rdf="http://www.w3.org/1999/02/22-rdf-syntax-ns#">
 <metadata>
  <rdf:RDF>
   <cc:Work rdf:about="">
    <dc:format>image/svg+xml</dc:format>
    <dc:type rdf:resource="http://purl.org/dc/dcmitype/StillImage"/>
    <dc:title/>
   </cc:Work>
  </rdf:RDF>
 </metadata>
 <path d="m63.927 8.5748v0.41841a54.931 54.931 0 0 0-50.418 50.93h-0.13473v7.9621h0.2092a54.931 54.931 0 0 0 54.722 50.751 54.931 54.931 0 0 0 54.758-50.751h0.17375v-7.9621h-0.1897a54.931 54.931 0 0 0-51.159-51.022v-0.32621zm7.9621 9.5382a46.274 46.274 0 0 1 42.353 41.81h-7.5703a39.208 39.208 0 0 1 0.24642 3.9819 39.208 39.208 0 0 1-0.20742 3.9802h7.5845a46.274 46.274 0 0 1-42.406 42.426v-7.4675a39.208 39.208 0 0 1-4.1805 0.26947 39.208 39.208 0 0 1-3.7816-0.1897v7.3398a46.274 46.274 0 0 1-41.828-42.378h6.6484a39.208 39.208 0 0 1-0.24643-3.9802 39.208 39.208 0 0 1 0.20742-3.9819h-6.5615a46.274 46.274 0 0 1 41.78-41.755v6.7494a39.208 39.208 0 0 1 3.7816-0.22161 39.208 39.208 0 0 1 4.1805 0.23757zm30.934 16.685-31.946 22.489a6.4684 6.4684 0 0 0-2.0725-0.34749 6.4684 6.4684 0 0 0-1.6009 0.20743l-5.48-5.3967-9.7988-9.6481 6.2211 11.816 4.3188 8.2032a6.4684 6.4684 0 0 0-0.12942 1.2854 6.4684 6.4684 0 0 0 6.4693 6.4676 6.4684 6.4684 0 0 0 6.4676-6.4676 6.4684 6.4684 0 0 0-0.0071-0.20034l12.111-12.487z" fill="#333" stroke-linecap="round" stroke-linejoin="round" stroke-width="1.853" style="paint-order:stroke markers fill"/>
</svg>
