<?xml version="1.0" encoding="UTF-8"?>
<svg width="512pt" height="512pt" version="1.0" viewBox="0 0 512 512" xmlns="http://www.w3.org/2000/svg" xmlns:cc="http://creativecommons.org/ns#" xmlns:dc="http://purl.org/dc/elements/1.1/" xmlns:rdf="http://www.w3.org/1999/02/22-rdf-syntax-ns#">
 <metadata>Created by potrace 1.15, written by Peter Selinger 2001-2017
  <rdf:RDF>
   <cc:Work rdf:about="">
    <dc:format>image/svg+xml</dc:format>
    <dc:type rdf:resource="http://purl.org/dc/dcmitype/StillImage"/>
    <dc:title/>
   </cc:Work>
  </rdf:RDF>
 </metadata>
 <g transform="translate(0 512) scale(.1 -.1)">
  <path d="m784 4745c-174-38-363-150-486-290-169-192-254-459-218-682 40-253 257-719 590-1268 227-376 227-375 292-375 24 0 54 7 66 16 57 40 391 601 568 954 115 231 166 349 221 512 37 111 37 116 37 268 0 143-2 161-28 240-103 313-345 541-655 619-100 25-288 28-387 6zm331-220c252-52 441-236 505-489 50-199 7-372-195-781-120-242-448-816-460-803s-223 370-294 497c-295 529-398 809-370 1008 35 253 182 444 414 537 117 47 267 58 400 31z"/>
  <path d="m875 4307c-114-38-217-127-264-226-23-49-26-69-26-156 0-93 3-104 32-160 42-81 114-151 193-189 59-28 74-31 160-31 81 0 103 4 150 26 85 40 154 108 197 197 35 70 38 82 38 161-1 76-4 94-32 152-66 134-197 227-334 235-46 2-89-1-114-9zm184-236c47-23 74-78 73-147-1-96-50-151-143-161-121-12-198 64-186 184 3 30 13 65 21 79 46 69 148 88 235 45z"/>
  <path d="m4055 3490c-354-56-655-330-746-680-31-117-31-274-2-386 79-300 322-786 680-1360 116-187 128-199 195-199 46 0 53 3 82 37 17 20 92 137 167 260 458 752 671 1247 644 1498-25 229-113 416-271 573-163 162-368 253-593 262-53 2-123 0-156-5zm353-254c89-33 131-57 198-110 98-79 168-179 211-303 24-69 27-92 27-203 0-118-2-131-38-239-65-194-184-441-372-773-72-126-239-405-250-417-6-7-25 22-137 209-281 469-462 839-517 1055-90 352 116 700 470 795 112 30 306 23 408-14z"/>
  <path d="m4063 3032c-102-36-194-121-242-222-22-47-26-68-26-150 1-82 4-103 27-153 35-74 124-163 203-201 190-92 416 1 511 209 85 185-6 407-206 502-74 35-191 42-267 15zm173-213c100-26 144-158 84-257-48-78-181-92-258-27-62 52-67 176-10 240 44 51 101 64 184 44z"/>
  <path d="m924 1920c-60-24-85-121-44-172 23-30 43-39 182-77 87-24 113-28 142-20 49 13 76 51 76 105 0 72-31 96-178 139-130 37-144 39-178 25z"/>
  <path d="m1731 1676c-33-18-50-53-51-103 0-67 26-88 160-128 146-44 191-45 231-6 24 25 29 38 29 78 0 73-27 94-175 138-130 38-158 41-194 21z"/>
  <path d="m2537 1430c-54-43-53-141 1-178 32-22 238-82 282-82 23 0 42 10 66 34 28 28 34 41 34 78 0 45-19 78-55 96-39 20-233 72-268 72-19 0-45-9-60-20z"/>
  <path d="m3361 1194c-63-45-58-154 9-189 55-28 252-77 286-71 48 10 84 57 84 111 0 71-25 90-165 131-133 38-179 42-214 18z"/>
 </g>
</svg>
