<?xml version="1.0" encoding="UTF-8"?>
<svg width="512pt" height="512pt" version="1.0" viewBox="0 0 512 512" xmlns="http://www.w3.org/2000/svg" xmlns:cc="http://creativecommons.org/ns#" xmlns:dc="http://purl.org/dc/elements/1.1/" xmlns:rdf="http://www.w3.org/1999/02/22-rdf-syntax-ns#">
 <metadata>Created by potrace 1.15, written by Peter Selinger 2001-2017
  <rdf:RDF>
   <cc:Work rdf:about="">
    <dc:format>image/svg+xml</dc:format>
    <dc:type rdf:resource="http://purl.org/dc/dcmitype/StillImage"/>
    <dc:title/>
   </cc:Work>
  </rdf:RDF>
 </metadata>
 <g transform="translate(0 512) scale(.1 -.1)">
  <path d="m2044 4616c-54-24-64-49-64-158 0-94 1-99 29-130l29-33 362-6v-142-142h175 175v143 142h171c237 0 249 8 249 173 0 105-11 130-66 153-48 20-1014 20-1060 0z"/>
  <path d="m2413 3909c-207-20-413-79-601-173-476-236-798-658-914-1196-19-91-22-134-22-330s3-238 22-329c75-344 223-625 454-861 355-365 855-553 1354-510 244 21 435 75 644 181 481 246 807 687 906 1224 14 77 18 147 18 305 0 182-3 219-27 331-59 278-168 511-345 733-351 440-923 680-1489 625zm421-374c526-111 922-491 1053-1012 26-100 28-124 28-308 0-161-4-216-19-280-44-189-110-339-219-499-163-239-445-442-723-520-159-44-204-50-379-51-141 0-188 4-274 23-592 132-1014 608-1070 1207-50 529 235 1051 710 1304 148 79 302 128 484 155 65 10 333-3 409-19z"/>
  <path d="m2570 2794v-585l261-520c143-285 266-519 272-519 17 0 120 64 186 114 74 57 198 188 248 262 206 303 259 689 143 1036-58 174-147 316-279 449-209 208-454 319-758 343l-73 6v-586z"/>
  <path d="m1410 2210v-60h195 195v60 60h-195-195v-60z"/>
  <path d="m2510 1240v-200h65 65v200 200h-65-65v-200z"/>
  <path d="m3861 3903c-22-4-241-207-241-223 0-4 21-22 47-40 73-53 245-222 315-311l63-80 107 109c114 117 128 142 113 220-5 30-30 60-128 160-67 68-134 132-148 143-28 20-89 30-128 22z"/>
  <path d="m1153 3884c-17-9-87-73-156-143-135-137-147-159-132-238 5-31 29-60 119-152l112-113 54 68c91 117 264 287 369 361 7 5-136 149-192 194-41 33-56 39-95 39-26 0-61-7-79-16z"/>
 </g>
</svg>
